<svg width="20" height="25" viewBox="0 0 20 25" fill="none" xmlns="http://www.w3.org/2000/svg">
<path d="M3.5918 7.58358C4.37372 7.09791 5.27197 6.83177 6.19221 6.81306C6.49658 6.81348 6.8339 6.85756 7.20292 6.94648C7.4683 7.02218 7.79863 7.1429 8.22678 7.30279C8.48622 7.40281 8.68945 7.48413 8.84333 7.54571L8.8606 7.55262L8.87873 7.55988C9.00742 7.61138 9.11913 7.65609 9.19094 7.67942C9.54146 7.80658 9.86253 7.87206 10.141 7.87206C10.3754 7.87206 10.6587 7.80219 10.9192 7.7232L10.929 7.72023L10.9386 7.71683C10.9568 7.71043 10.9775 7.70326 11.0005 7.69525C11.154 7.64198 11.4147 7.55149 11.7636 7.4026C11.9989 7.31676 12.2148 7.23424 12.3975 7.1644C12.5009 7.12487 12.5938 7.0894 12.6735 7.05968C13.0409 6.95145 13.3679 6.86064 13.6507 6.81559C13.9951 6.76133 14.3446 6.74697 14.6923 6.77281L14.6964 6.77307C15.3137 6.81342 15.9217 6.94395 16.5011 7.16051C17.2929 7.4801 17.9488 7.94607 18.4694 8.58187C18.3378 8.68162 18.2108 8.78762 18.0891 8.89953C17.5659 9.36398 17.1202 9.90896 16.7687 10.5139L16.7686 10.5139L16.7643 10.5216C16.2977 11.3613 16.0558 12.3073 16.062 13.268L16.062 13.268L16.062 13.2717C16.0789 14.4323 16.3779 15.4735 16.9784 16.3792C17.4144 17.0415 17.9808 17.608 18.643 18.0442C18.8261 18.1675 18.9997 18.2726 19.1689 18.3611C19.0893 18.5886 19.0049 18.8108 18.9119 19.0306C18.5783 19.8105 18.1741 20.5582 17.7043 21.2645C17.2734 21.8899 16.9446 22.3427 16.701 22.6374C16.3172 23.0918 15.9639 23.4193 15.6243 23.6396L15.6243 23.6396L15.6204 23.6421C15.2667 23.8767 14.8478 24.0025 14.422 24.0025H14.4132L14.4043 24.0028C14.1073 24.0142 13.8103 23.9788 13.5242 23.898C13.2492 23.8049 12.9806 23.7052 12.7186 23.5929C12.4081 23.4506 12.0881 23.3303 11.7609 23.2327L11.7524 23.2302L11.7438 23.228C10.9068 23.013 10.0291 23.0116 9.1914 23.2239L9.18424 23.2257L9.17714 23.2277C8.84897 23.3222 8.53001 23.4333 8.2131 23.5708L8.1723 23.5879C7.77032 23.7568 7.53443 23.8559 7.40453 23.8971C7.12275 23.9792 6.83113 24.0308 6.53687 24.0489C6.18894 24.0469 5.85641 23.9644 5.51848 23.7891L5.33418 23.6665C4.90227 23.3792 4.51948 23.0241 4.20051 22.615L4.1961 22.6093L4.19152 22.6038C3.81899 22.1555 3.47383 21.685 3.15791 21.1951L3.15804 21.1951L3.15122 21.1851C2.41122 20.101 1.83089 18.9161 1.42804 17.6669L1.42806 17.6669L1.42661 17.6625C0.940495 16.2049 0.707815 14.8164 0.707815 13.4645C0.707815 11.9615 1.03253 10.6727 1.65032 9.60163L1.65042 9.60169L1.65544 9.59253C2.10855 8.76426 2.77474 8.0721 3.5851 7.58767L3.58513 7.58772L3.5918 7.58358ZM14.0649 2.41529C13.852 3.00239 13.541 3.54913 13.1453 4.03226C12.7458 4.50616 12.2558 4.89562 11.7039 5.17784L11.4908 5.28683C11.1052 5.45309 10.7394 5.54428 10.3844 5.56778C10.378 5.1314 10.4706 4.66748 10.6629 4.1482C10.8727 3.58496 11.1825 3.06428 11.5775 2.61127C11.994 2.1353 12.4993 1.74516 13.0651 1.46273L13.0652 1.46276L13.0703 1.46013C13.5109 1.2333 13.9257 1.08687 14.3172 1.01351C14.3158 1.4646 14.2351 1.92222 14.0649 2.41529Z" fill="black" stroke="black" stroke-width="0.923077"/>
</svg>
