<svg width="40" height="40" viewBox="0 0 40 40" fill="none" xmlns="http://www.w3.org/2000/svg">
<rect x="4.57764e-05" width="40" height="40" rx="20" fill="#CBD5E0"/>
<g clip-path="url(#clip0_2_384)">
<path d="M31 27C31 27.5304 30.7893 28.0391 30.4143 28.4142C30.0392 28.7893 29.5305 29 29 29H11C10.4696 29 9.9609 28.7893 9.58583 28.4142C9.21076 28.0391 9.00005 27.5304 9.00005 27V16C9.00005 15.4696 9.21076 14.9609 9.58583 14.5858C9.9609 14.2107 10.4696 14 11 14H15L17 11H23L25 14H29C29.5305 14 30.0392 14.2107 30.4143 14.5858C30.7893 14.9609 31 15.4696 31 16V27Z" stroke="white" stroke-width="2" stroke-linecap="round" stroke-linejoin="round"/>
<path d="M20 25C22.2092 25 24 23.2091 24 21C24 18.7909 22.2092 17 20 17C17.7909 17 16 18.7909 16 21C16 23.2091 17.7909 25 20 25Z" stroke="white" stroke-width="2" stroke-linecap="round" stroke-linejoin="round"/>
</g>
<defs>
<clipPath id="clip0_2_384">
<rect width="24" height="24" fill="white" transform="translate(8.00005 8)"/>
</clipPath>
</defs>
</svg>
